<svg width="76" height="136" viewBox="0 0 76 136" fill="none" xmlns="http://www.w3.org/2000/svg">
<path d="M2.4 1.48695C0.133333 2.68695 0 7.35362 0 68.1536V133.487L3.06667 134.554C4.66667 135.22 7.06667 135.22 8.4 134.42C10.5333 133.354 10.6667 129.087 10.6667 74.687C10.6667 42.5536 11.0667 15.3536 11.4667 14.1536C12.1333 12.287 16 12.0203 40.9333 12.0203C58.1333 12.0203 70.5333 11.487 72.1333 10.687C74.9333 9.08696 75.4667 4.02029 73.0667 1.62029C71.0667 -0.379712 5.86667 -0.646379 2.4 1.48695Z" fill="#E756B3"/>
<path d="M26.6667 26.687C23.6001 28.5537 22.9334 53.6204 25.8667 58.0204C28.0001 61.2204 28.5334 61.3537 44.6667 61.3537H61.3334L62.9334 57.887C64.4001 54.8204 64.2667 54.0204 61.4667 51.887C58.9334 49.887 56.1334 49.3537 47.0667 49.3537H35.8667L36.2667 42.9537L36.6667 36.687L54.9334 36.287C71.6001 36.0204 73.4667 35.7537 74.6667 33.3537C75.7334 31.487 75.7334 29.887 74.6667 28.0204C73.3334 25.487 71.8667 25.3537 50.9334 25.3537C38.6667 25.3537 27.7334 26.0204 26.6667 26.687Z" fill="#E756B3"/>
<path d="M26.6666 76.0204C25.0666 77.0871 24.5333 81.7537 24.2666 102.154C24 115.887 24.1333 128.554 24.6666 130.287C25.6 134.02 30.2666 136.287 33.7333 134.42C35.7333 133.354 36 130.82 36 110.02V86.6871H46.4C57.3333 86.6871 63.0666 84.8204 63.7333 80.9537C64.8 75.6204 61.8666 74.6871 44.8 74.6871C36 74.6871 27.7333 75.3537 26.6666 76.0204Z" fill="#E756B3"/>
</svg>
