<svg width="1064" height="194" viewBox="0 0 1064 194" fill="none" xmlns="http://www.w3.org/2000/svg">
<path d="M589.333 0.988604C576.933 4.05527 572.133 5.7886 565.333 9.7886C551.467 17.9219 541.6 30.9886 536.133 48.4553C533.6 56.1886 533.2 60.0553 533.733 71.6553C534.267 88.4553 537.067 98.4553 544 109.522C553.6 124.722 566.267 133.522 584.4 137.655C618.267 145.389 650.8 130.589 665.867 100.589C671.067 90.0553 671.333 85.7886 666.667 84.5886C663.333 83.6553 659.2 86.8553 658.133 91.1219C655.867 100.055 644.933 112.989 633.6 120.189C626.133 124.855 611.733 128.989 603.2 128.989C594 128.989 577.333 124.589 570.8 120.322C558.267 112.455 548.133 96.9886 545.2 81.3886C540.267 55.6553 553.067 27.6553 573.867 18.3219C589.733 11.2553 589.067 11.3886 604.533 11.9219C612.667 12.1886 620.533 13.1219 622 13.9219C623.467 14.8553 627.6 16.8553 631.2 18.5886C639.6 22.5886 651.733 34.7219 655.733 43.1219C660.267 52.8553 660.667 53.3886 663.067 54.8553C666.267 56.8553 670 54.1886 669.733 49.9219C669.6 46.8553 668 43.3886 662.133 32.1886C659.067 26.3219 644.4 12.5886 637.333 8.9886C623.467 1.92194 600.8 -1.94473 589.333 0.988604Z" fill="#E756B3"/>
<path d="M201.6 2.72195C200.4 4.18862 200 21.6553 200.267 70.4553L200.667 136.322H205.333H210V68.9886V1.65529L206.533 1.25529C204.667 0.98862 202.4 1.65529 201.6 2.72195Z" fill="#E756B3"/>
<path d="M223.333 3.5219C222.4 6.7219 223.6 9.65524 228.667 16.9886C231.067 20.3219 238.4 30.7219 245.067 40.3219C262.267 64.9886 264.133 67.3886 266.533 68.3219C268.933 69.2552 273.867 64.1886 282.267 51.9219C290.667 39.6552 300 26.3219 306.267 17.3886C313.2 7.65524 313.733 1.9219 308 1.25524C303.867 0.721904 301.6 3.1219 291.733 17.6552C279.867 35.2552 269.2 50.1886 268 50.9886C267.333 51.3886 265.733 50.0552 264.4 48.0552C263.067 46.0552 261.467 43.6552 260.933 42.9886C260.267 42.1886 255.067 34.7219 249.333 26.3219C243.467 17.9219 237.2 8.7219 235.333 5.9219C232.667 2.18857 230.933 0.988571 228 0.988571C225.467 0.988571 223.867 1.78857 223.333 3.5219Z" fill="#E756B3"/>
<path d="M325.6 2.58856C324.4 3.78856 324 20.1886 324 68.4552C324 103.789 324.4 133.655 324.8 134.855C325.733 137.389 332.133 137.655 334.4 135.389C336.533 133.255 336.667 7.5219 334.667 3.5219C333.067 0.721896 328 0.188563 325.6 2.58856Z" fill="#E756B3"/>
<path d="M2.4 3.78851C0.133333 4.98851 0 9.65518 0 70.4552V135.789L3.06667 136.855C4.66667 137.522 7.06667 137.522 8.4 136.722C10.5333 135.655 10.6667 131.389 10.6667 76.9885C10.6667 44.8552 11.0667 17.6552 11.4667 16.4552C12.1333 14.5885 16 14.3218 40.9333 14.3218C58.1333 14.3218 70.5333 13.7885 72.1333 12.9885C74.9333 11.3885 75.4667 6.32185 73.0667 3.92185C71.0667 1.92185 5.86667 1.65518 2.4 3.78851Z" fill="#E756B3"/>
<path d="M101.067 3.78859C98.8 4.98859 98.6667 9.65526 98.6667 70.4553V135.655L102.133 136.989C106.8 138.855 167.467 138.722 170.8 136.989C173.6 135.389 174.133 130.322 171.733 127.922C170.533 126.722 161.6 126.322 139.733 126.322H109.333L109.6 70.5886L110 14.9886L140 14.3219C156.533 13.9219 170.8 13.1219 171.733 12.5886C174.267 10.8553 173.6 5.25526 170.8 3.65526C167.333 1.92193 104.133 1.92193 101.067 3.78859Z" fill="#E756B3"/>
<path d="M686.4 3.25527C682.4 4.32193 683.333 9.92193 690.133 24.5886C691.2 26.8553 692 29.1219 692 29.6553C692 30.1886 692.8 32.4553 693.867 34.7219C694.933 37.1219 697.333 42.8553 699.333 47.6553C701.2 52.4553 703.333 57.5219 704 58.9886C704.667 60.4553 708 68.5886 711.333 76.9886C714.667 85.3886 718 93.5219 718.667 94.9886C719.333 96.4553 721.467 101.522 723.333 106.322C725.2 111.122 727.333 116.189 728 117.655C728.667 119.122 731.067 124.722 733.2 130.189C738.4 143.255 743.467 146.055 746.8 137.389C747.6 135.389 748.933 131.922 749.867 129.655C750.8 127.522 753.333 121.389 755.333 116.322C757.2 111.122 759.6 105.522 760.533 103.655C761.6 101.789 762.667 98.7219 763.2 96.5886C764.4 91.3886 767.467 92.0553 769.467 97.9219C770.267 100.722 771.467 103.522 771.867 104.322C772.4 104.989 774.533 110.189 776.667 115.655C778.8 121.122 780.933 126.189 781.467 126.989C781.867 127.655 783.067 130.455 783.867 133.122C785.867 139.122 789.467 142.722 792.533 141.522C794.533 140.722 801.333 128.322 801.333 125.655C801.333 125.122 802.133 122.855 803.2 120.589C804.133 118.189 806.667 112.055 808.667 106.989C812.667 96.7219 815.333 90.1886 818.133 84.5886C819.2 82.4553 820 80.1886 820 79.3886C820 78.5886 821.2 75.1219 822.8 71.7886C827.067 62.4553 828.8 58.3219 832 49.6553C833.733 45.2553 835.867 39.7886 836.8 37.6553C841.067 27.7886 849.333 6.85527 849.333 5.92193C849.333 4.1886 843.467 2.5886 841.067 3.7886C839.867 4.45527 838.133 7.12193 837.333 9.7886C836.4 12.4553 834.933 16.1886 833.867 18.0553C832.8 20.0553 832 22.1886 832 22.7219C832 23.3886 831.2 25.7886 830.133 28.0553C829.067 30.4553 826.533 36.1886 824.667 40.9886C822.8 45.7886 820.267 51.5219 819.2 53.9219C818.133 56.1886 817.333 58.4553 817.333 58.9886C817.333 59.5219 816.533 61.7886 815.467 64.0553C814.4 66.4553 812 72.1886 810 76.9886C808.133 81.7886 806 86.8553 805.333 88.3219C804.667 89.7886 802.8 94.3219 801.333 98.3219C799.733 102.322 797.333 108.189 795.867 111.389C794.533 114.455 793.333 117.922 793.333 118.989C793.333 121.389 791.467 121.522 789.733 119.255C789.067 118.455 787.2 114.055 785.467 109.655C783.733 105.255 781.2 99.1219 779.867 96.0553C778.4 92.9886 777.333 90.0553 777.333 89.6553C777.333 88.7219 772.533 77.5219 770.8 74.3219C770.267 73.2553 768.267 72.1886 766.4 71.9219C762.4 71.3886 761.867 72.4553 750.8 100.322C746.667 110.722 742.8 119.389 742.133 119.655C740.533 120.589 739.2 118.055 730.267 95.6553C718.8 67.1219 713.2 53.3886 712 50.9886C711.333 49.5219 708 41.3886 704.667 32.9886C701.333 24.5886 697.6 15.7886 696.667 13.3886C695.6 11.1219 694.667 8.5886 694.667 7.92193C694.667 6.32193 690.933 2.1886 689.6 2.45527C689.067 2.5886 687.6 2.85527 686.4 3.25527Z" fill="#E756B3"/>
<path d="M714.4 3.25529C711.733 3.92195 711.067 10.0553 713.2 14.0553C714.933 17.2553 718.933 26.5886 723.333 37.6553C725.333 42.722 727.467 48.1886 728 49.6553C735.067 66.4553 736.8 69.922 739.067 72.0553C741.6 74.1886 741.867 74.1886 744.133 72.1886C745.467 70.9886 746.933 68.722 747.467 67.122C747.867 65.6553 749.067 62.4553 750 60.322C751.067 58.0553 753.333 52.4553 755.333 47.6553C757.2 42.8553 759.333 37.7886 760 36.322C760.667 34.8553 762.133 31.3886 763.2 28.5886C765.6 22.8553 766.933 22.9886 769.333 29.2553C770.267 31.6553 772.267 36.5886 774 40.322C775.6 43.922 777.733 49.3886 778.8 52.322C779.733 55.2553 781.333 58.8553 782.267 60.322C783.2 61.7886 784 64.0553 784 65.3886C784 66.722 785.467 69.2553 787.333 71.122C791.867 75.6553 794.533 73.922 798.533 63.3886C800.267 58.8553 802.533 53.122 803.467 50.9886C804.4 48.722 806.667 43.122 808.667 38.322C810.533 33.522 812.667 28.4553 813.333 26.9886C821.067 9.92196 822 4.45529 817.333 3.25529C814 2.45529 810 6.32196 808.667 11.3886C808.133 13.3886 806.933 16.722 806 18.9886C804.933 21.122 802.533 26.8553 800.667 31.6553C798.8 36.4553 796.267 42.1886 795.2 44.5886C794.133 46.8553 793.333 49.3886 793.333 50.1886C793.333 50.9886 792.533 51.6553 791.467 51.6553C790.267 51.6553 786.133 42.9886 780.533 28.4553C775.2 15.2553 770.267 4.58862 768.933 3.78862C766.933 2.45529 765.733 2.58862 763.2 4.32195C761.467 5.38862 760 7.25529 760 8.32196C760 10.1886 756.667 18.322 752.533 26.722C751.467 28.8553 750.667 31.122 750.667 31.922C750.667 32.5886 749.867 35.122 748.8 37.3886C747.733 39.7886 745.867 43.922 744.8 46.5886C741.333 55.2553 741.733 55.7886 730 26.322C722.933 8.58862 719.6 2.05529 717.467 2.45529C717.067 2.58862 715.6 2.85529 714.4 3.25529Z" fill="#E756B3"/>
<path d="M420.667 5.25524C420.267 6.18857 420.133 36.0552 420.267 71.6552L420.667 136.322L424.267 136.722C427.2 137.122 428.267 136.455 429.333 133.655C430.133 131.522 430.667 107.655 430.667 72.3219C430.667 20.9886 430.933 14.4552 432.8 13.7886C436.667 12.3219 471.2 12.9886 479.6 14.7219C494.667 17.9219 502.533 27.3886 503.733 43.9219C504.267 51.3886 503.867 53.7886 501.333 58.5886C493.6 73.5219 486.8 76.8552 463.733 76.9886C448.4 76.9886 446.667 77.2552 445.333 79.5219C443.333 83.3886 443.6 133.389 445.6 135.389C448 137.789 453.067 137.255 454.667 134.455C455.467 132.989 456 122.455 456 109.789V87.6552H469.067C485.867 87.6552 493.067 85.2552 502 76.3219C510.8 67.6552 514.667 57.7886 514.667 44.3219C514.667 38.8552 514.133 34.0552 513.333 33.6552C512.667 33.2552 512 31.9219 512 30.7219C512 24.0552 502.4 12.4552 492.667 7.1219C487.733 4.45524 485.067 4.3219 454.267 3.9219C428 3.5219 421.2 3.78857 420.667 5.25524Z" fill="#E756B3"/>
<path d="M868.267 5.25525C866.133 7.38858 866 130.455 868 134.455C869.333 136.855 871.2 136.989 903.867 136.989C933.733 136.989 938.533 136.722 940.133 134.855C941.333 133.389 941.467 132.189 940.4 130.589C939.2 128.589 935.067 128.189 908.533 127.655C891.733 127.255 877.867 126.722 877.6 126.589C877.467 126.455 877.467 100.989 877.6 69.9219L878 13.6552L908.533 12.9886C935.067 12.4552 939.2 12.0552 940.4 10.0552C941.467 8.45525 941.333 7.25525 940.133 5.78858C938.533 3.92191 933.733 3.65525 904.133 3.65525C879.2 3.65525 869.467 4.05525 868.267 5.25525Z" fill="#E756B3"/>
<path d="M969.467 6.18858C968.533 7.92191 968 28.8552 968 70.5886C968.133 135.922 968.267 137.922 974.267 136.722C976.533 136.322 976.667 132.989 977.333 74.9886C977.733 41.2552 978.267 13.5219 978.4 13.2552C978.533 13.1219 990.267 12.9886 1004.4 12.9886C1026.13 13.1219 1030.8 13.3886 1035.07 15.5219C1041.47 18.4552 1050.67 27.1219 1050.67 30.1886C1050.67 31.3886 1051.47 33.2552 1052.4 34.1886C1055.07 36.8552 1054.53 56.1886 1051.6 59.3886C1050.4 60.7219 1049.33 62.3219 1049.33 62.9886C1049.33 63.5219 1047.07 66.3219 1044.4 68.9886C1038.93 74.1886 1032.67 76.9886 1026.27 76.9886C1022.53 76.9886 1018.8 79.9219 1018.67 83.1219C1018.67 83.9219 1020.67 87.5219 1022.93 91.1219C1027.07 97.2553 1028.13 98.8553 1031.33 102.722C1032.13 103.655 1034.4 106.989 1036.67 110.322C1038.8 113.655 1042.93 119.389 1045.6 123.122C1048.4 126.855 1050.67 130.322 1050.67 130.722C1050.67 132.189 1055.87 136.989 1057.33 136.989C1058 136.989 1059.2 135.789 1060 134.189C1061.2 132.055 1061.07 130.989 1059.47 129.122C1058.27 127.789 1057.33 126.322 1057.33 125.789C1057.33 124.989 1052.27 117.255 1050.67 115.655C1050.27 115.255 1048.13 112.322 1046 108.989C1043.73 105.655 1041.2 102.189 1040.4 101.255C1039.47 100.322 1038.67 98.9886 1038.67 98.4553C1038.67 97.9219 1037.47 96.0553 1036 94.3219C1031.6 89.2553 1032.67 86.0553 1039.87 82.4553C1048.67 78.3219 1058.67 68.4552 1058.67 64.1886C1058.67 63.2552 1059.73 61.5219 1060.93 60.3219C1062.67 58.5886 1063.07 55.5219 1063.07 46.0552C1063.07 39.5219 1062.53 33.6552 1061.87 33.2552C1061.07 32.7219 1059.73 30.1886 1058.67 27.6552C1057.73 25.1219 1055.73 21.7886 1054.4 20.1886C1053.07 18.7219 1052 16.7219 1052 15.9219C1052 14.9886 1051.2 14.3219 1050.27 14.3219C1049.33 14.3219 1047.33 13.2552 1045.87 11.9219C1038.4 4.98858 1035.87 4.45525 1002.4 3.92191C971.867 3.52191 970.8 3.52191 969.467 6.18858Z" fill="#E756B3"/>
<path d="M599.2 26.4552C597.867 26.9886 594.933 27.5219 592.667 27.5219C582.533 27.7886 564.8 43.1219 565.6 50.9886C565.867 54.1886 566.667 55.1219 569.467 55.3886C572.133 55.6552 573.6 54.7219 576 51.2552C579.6 46.0552 586.4 41.1219 593.2 38.7219C598.933 36.7219 610.133 36.4552 611.333 38.3219C611.733 38.9886 613.2 39.6552 614.4 39.6552C617.867 39.6552 626.133 46.1886 630.267 52.0552C633.733 57.2552 634 58.7219 634 69.9219C634 81.2552 633.733 82.4552 630 87.7886C627.733 90.9886 623.333 95.3886 620.267 97.6552C615.333 100.989 612.933 101.655 604.8 102.055C592.933 102.722 586.667 99.9219 577.067 90.0552C570.667 83.3886 568.667 82.7219 566.267 86.5886C562.8 92.0552 572.667 104.322 585.2 110.055C595.2 114.722 611.467 114.722 620.933 110.189C629.467 105.922 639.2 96.0552 641.333 89.5219C642.267 86.7219 643.6 83.5219 644.267 82.7219C646.533 79.9219 645.867 59.5219 643.467 54.9886C642.267 52.7219 641.333 50.3219 641.333 49.5219C641.333 47.1219 630.667 35.6552 625.467 32.4552C618.267 27.9219 603.867 24.7219 599.2 26.4552Z" fill="#E756B3"/>
<path d="M26.6667 28.9886C23.6 30.8553 22.9333 55.9219 25.8667 60.3219C28 63.5219 28.5333 63.6553 44.6667 63.6553H61.3333L62.9333 60.1886C64.4 57.1219 64.2667 56.3219 61.4667 54.1886C58.9333 52.1886 56.1333 51.6553 47.0667 51.6553H35.8667L36.2667 45.2553L36.6667 38.9886L54.9333 38.5886C71.6 38.3219 73.4667 38.0553 74.6667 35.6553C75.7333 33.7886 75.7333 32.1886 74.6667 30.3219C73.3333 27.7886 71.8667 27.6553 50.9333 27.6553C38.6667 27.6553 27.7333 28.3219 26.6667 28.9886Z" fill="#E756B3"/>
<path d="M124 30.1886C123.333 31.6553 122.667 38.7219 122.667 46.0553C122.667 63.6553 122.667 63.6553 142.8 63.6553C151.2 63.6553 158.8 63.1219 159.867 62.4553C161.733 61.2553 162.4 54.8553 160.667 53.2553C160.267 52.7219 154.133 52.0553 147.2 51.9219L134.533 51.3886L134.933 45.2553L135.333 38.9886L152.533 38.5886C162.533 38.4553 170.533 37.6553 171.6 36.7219C174 34.7219 173.733 29.3886 171.2 28.4553C170 28.0553 159.333 27.6553 147.333 27.6553C127.067 27.6553 125.333 27.7886 124 30.1886Z" fill="#E756B3"/>
<path d="M445.333 30.3219C444.267 32.1886 444.267 33.7886 445.333 35.6553C446.667 38.0553 448.133 38.3219 459.067 38.3219C473.733 38.3219 478 40.0553 478 45.6553C478 50.4553 473.867 52.9886 465.733 52.9886C462.533 52.9886 460 53.5219 460 54.1886C460 54.8553 459.6 56.3219 459.2 57.3886C458 60.7219 462.4 63.6553 468.8 63.6553C476.133 63.6553 484.133 59.7886 486.667 54.8553C489.6 49.3886 489.2 39.2553 485.867 34.7219C481.333 28.7219 478 27.6553 461.733 27.6553C448.133 27.6553 446.667 27.9219 445.333 30.3219Z" fill="#E756B3"/>
<path d="M894.4 29.1219C892.4 30.3219 892 32.5886 892 44.8553C892 62.4553 892.8 63.6553 904.8 63.5219C917.2 63.3886 928.133 61.6553 929.333 59.6553C930 58.7219 929.733 56.8553 928.933 55.3886C927.6 53.3886 925.6 52.9886 914.933 52.9886H902.533L902.933 45.2553L903.333 37.6553L922 36.9886C939.067 36.3219 940.667 36.0553 941.067 33.7886C942.133 28.7219 938 27.6553 916.8 27.6553C905.6 27.6553 895.6 28.3219 894.4 29.1219Z" fill="#E756B3"/>
<path d="M996.267 28.722C995.2 29.3886 994.667 31.3886 994.933 33.122C995.333 36.1886 995.867 36.322 1007.33 36.5886C1022.67 37.122 1024.53 37.522 1027.2 41.6553C1028.93 44.322 1029.07 45.522 1027.87 48.0553C1025.6 52.322 1024.13 52.9886 1017.07 52.9886C1012 52.9886 1010.67 53.522 1010 55.6553C1008.4 60.5886 1011.73 62.722 1019.73 61.922C1028.53 60.9886 1032.67 58.322 1035.33 52.1886C1037.87 45.922 1037.87 43.3886 1035.07 37.922C1030.8 29.7886 1027.6 28.4553 1012 27.922C1004.27 27.6553 997.2 28.0553 996.267 28.722Z" fill="#E756B3"/>
<path d="M228.4 48.7219C224.667 51.1219 224 58.0552 224 94.7219C224.133 136.055 224.4 137.522 231.6 136.722L235.333 136.322L235.733 106.989C235.867 90.8553 236.4 76.8552 236.667 75.7886C237.467 73.7886 241.733 79.3886 257.067 101.522C266.133 114.722 268.133 114.855 276.933 103.122C280.4 98.4553 286.267 90.3219 289.733 85.1219C293.2 79.9219 296.667 75.6552 297.467 75.6552C298.133 75.6552 298.667 86.9886 298.667 103.789C298.667 120.589 299.2 132.855 300 134.455C300.8 135.922 302.8 136.989 304.667 136.989C306.533 136.989 308.533 135.922 309.333 134.455C310.133 132.855 310.667 116.989 310.667 92.4553C310.667 54.7219 310.533 52.8552 308 50.3219C303.067 45.3886 303.733 44.9886 287.467 68.3219C285.867 70.4552 284.4 72.5886 284 72.9886C283.6 73.3886 280.4 77.9219 276.8 83.2553C269.2 94.7219 267.467 96.3219 265.733 94.0553C263.733 91.5219 256.533 81.1219 245.467 64.5886C240.133 56.7219 234.667 49.6552 233.333 48.9886C230.4 47.3886 230.4 47.3886 228.4 48.7219Z" fill="#E756B3"/>
<path d="M26.6666 78.322C25.0666 79.3886 24.5333 84.0553 24.2666 104.455C24 118.189 24.1333 130.855 24.6666 132.589C25.6 136.322 30.2666 138.589 33.7333 136.722C35.7333 135.655 36 133.122 36 112.322V88.9886H46.4C57.3333 88.9886 63.0666 87.122 63.7333 83.2553C64.8 77.922 61.8666 76.9886 44.8 76.9886C36 76.9886 27.7333 77.6553 26.6666 78.322Z" fill="#E756B3"/>
<path d="M124 79.522C122.133 83.2553 122.267 109.389 124.267 111.389C126.533 113.655 169.467 113.655 171.733 111.389C174.133 108.989 173.6 103.922 170.8 102.322C169.333 101.655 160.667 100.989 151.467 100.989H134.667V94.9886V88.9886H145.867C154.8 88.9886 157.6 88.4553 160.133 86.4553C162.933 84.322 163.067 83.522 161.6 80.4553L160 76.9886H142.8C126.933 76.9886 125.333 77.2553 124 79.522Z" fill="#E756B3"/>
<path d="M893.333 79.5219C892.667 80.9886 892 88.1886 892 95.5219C892 105.789 892.533 109.255 894.133 110.855C897.2 113.922 934 113.922 938.4 110.855C942 108.322 942.133 105.522 938.8 103.655C937.333 102.989 928.667 102.322 919.467 102.322H902.667V94.9886V87.6553H914.4C926.133 87.6553 929.333 86.5886 929.333 82.5886C929.333 78.3219 924.933 77.1219 909.733 76.9886C896.267 76.9886 894.667 77.2553 893.333 79.5219Z" fill="#E756B3"/>
<path d="M996.133 88.1886C995.067 89.3886 994.667 97.2553 994.933 113.122C995.333 134.322 995.6 136.322 997.733 136.722C1002.13 137.655 1003.87 133.122 1004 121.255C1004 115.255 1004.4 110.322 1004.8 110.322C1006 110.322 1008.4 113.255 1015.07 122.989C1024.27 136.589 1024.93 137.255 1027.6 136.722C1032.53 135.655 1030.13 128.855 1019.47 113.789C1013.87 105.922 1009.33 99.2553 1009.33 98.8553C1009.33 97.522 999.733 86.322 998.667 86.322C998.133 86.322 996.933 87.122 996.133 88.1886Z" fill="#E756B3"/>
<path d="M729.333 182.322C729.333 182.989 730 183.655 730.667 183.655C731.467 183.655 732 182.989 732 182.322C732 181.522 731.467 180.989 730.667 180.989C730 180.989 729.333 181.522 729.333 182.322Z" fill="#E756B3"/>
<path d="M106.958 178.905C106.958 178.207 106.797 177.619 106.474 177.14C106.161 176.66 105.755 176.254 105.255 175.921C104.755 175.598 104.203 175.327 103.599 175.108C103.005 174.89 102.432 174.692 101.88 174.515C101.078 174.254 100.26 173.942 99.4271 173.577C98.6042 173.202 97.8542 172.754 97.1771 172.233C96.4896 171.702 95.9271 171.077 95.4896 170.358C95.0625 169.629 94.849 168.775 94.849 167.796C94.849 166.817 95.0625 165.942 95.4896 165.171C95.9271 164.4 96.4948 163.749 97.1927 163.218C97.8907 162.687 98.6823 162.285 99.5677 162.015C100.453 161.733 101.344 161.593 102.24 161.593C103.229 161.593 104.182 161.759 105.099 162.093C106.016 162.416 106.828 162.874 107.536 163.468C108.245 164.062 108.813 164.78 109.24 165.624C109.667 166.468 109.891 167.41 109.911 168.452H106.943C106.859 167.796 106.698 167.202 106.458 166.671C106.219 166.129 105.901 165.666 105.505 165.28C105.109 164.895 104.635 164.598 104.083 164.39C103.542 164.171 102.927 164.062 102.24 164.062C101.688 164.062 101.146 164.14 100.615 164.296C100.094 164.452 99.6302 164.687 99.224 164.999C98.8073 165.312 98.474 165.697 98.224 166.155C97.9844 166.614 97.8646 167.145 97.8646 167.749C97.875 168.405 98.0417 168.963 98.3646 169.421C98.6875 169.869 99.099 170.249 99.599 170.562C100.089 170.874 100.62 171.134 101.193 171.343C101.776 171.551 102.323 171.733 102.833 171.89C103.677 172.15 104.521 172.468 105.365 172.843C106.208 173.207 106.979 173.676 107.677 174.249C108.365 174.78 108.917 175.431 109.333 176.202C109.76 176.973 109.974 177.864 109.974 178.874C109.974 179.895 109.745 180.785 109.286 181.546C108.839 182.306 108.255 182.937 107.536 183.437C106.818 183.947 106.005 184.332 105.099 184.593C104.193 184.843 103.286 184.968 102.38 184.968C101.297 184.968 100.229 184.785 99.1771 184.421C98.1355 184.056 97.2292 183.53 96.4584 182.843C95.7709 182.249 95.224 181.556 94.8177 180.765C94.4219 179.963 94.2084 179.072 94.1771 178.093H97.1302C97.224 178.801 97.4167 179.431 97.7084 179.983C98 180.525 98.375 180.983 98.8334 181.358C99.2917 181.744 99.8177 182.035 100.411 182.233C101.016 182.421 101.672 182.515 102.38 182.515C102.943 182.515 103.495 182.447 104.036 182.312C104.589 182.166 105.078 181.942 105.505 181.64C105.932 181.348 106.281 180.978 106.552 180.53C106.823 180.072 106.958 179.53 106.958 178.905ZM159.37 178.765H151.777L149.948 184.655H147.058L154.402 161.905H156.823L164.042 184.655H161.167L159.37 178.765ZM152.558 176.249H158.605L155.605 166.374L152.558 176.249ZM205.235 182.202H216.36V184.655H202.345V161.905H205.235V182.202ZM269.71 161.905L269.741 177.312C269.741 178.374 269.553 179.369 269.178 180.296C268.803 181.223 268.288 182.03 267.632 182.718C266.975 183.416 266.194 183.968 265.288 184.374C264.382 184.77 263.387 184.968 262.303 184.968C261.199 184.968 260.194 184.77 259.288 184.374C258.382 183.978 257.605 183.431 256.96 182.733C256.314 182.046 255.809 181.239 255.444 180.312C255.079 179.374 254.892 178.374 254.882 177.312L254.913 161.905H257.663L257.725 177.312C257.736 177.989 257.84 178.64 258.038 179.265C258.246 179.89 258.543 180.442 258.928 180.921C259.303 181.4 259.772 181.785 260.335 182.077C260.908 182.369 261.564 182.515 262.303 182.515C263.043 182.515 263.694 182.374 264.257 182.093C264.819 181.801 265.293 181.41 265.678 180.921C266.053 180.442 266.34 179.89 266.538 179.265C266.736 178.64 266.845 177.989 266.866 177.312L266.913 161.905H269.71ZM308.59 184.655V161.905H313.856C314.741 161.916 315.575 162.009 316.356 162.187C317.148 162.353 317.877 162.593 318.543 162.905C319.47 163.332 320.288 163.895 320.997 164.593C321.715 165.28 322.288 166.077 322.715 166.983C323.101 167.754 323.392 168.598 323.59 169.515C323.799 170.431 323.908 171.41 323.918 172.452V174.124C323.918 175.124 323.819 176.072 323.622 176.968C323.434 177.864 323.158 178.687 322.793 179.437C322.418 180.218 321.944 180.926 321.372 181.562C320.799 182.197 320.158 182.739 319.45 183.187C318.7 183.655 317.851 184.015 316.903 184.265C315.965 184.515 314.95 184.645 313.856 184.655H308.59ZM311.528 164.28V182.296H313.856C314.689 182.285 315.444 182.181 316.122 181.983C316.809 181.785 317.418 181.504 317.95 181.14C318.512 180.765 318.997 180.306 319.403 179.765C319.819 179.213 320.148 178.598 320.387 177.921C320.595 177.369 320.752 176.775 320.856 176.14C320.96 175.494 321.017 174.822 321.028 174.124V172.421C321.017 171.713 320.955 171.035 320.84 170.39C320.736 169.733 320.575 169.124 320.356 168.562C320.075 167.832 319.694 167.176 319.215 166.593C318.747 165.999 318.168 165.52 317.481 165.155C316.991 164.884 316.444 164.676 315.84 164.53C315.236 164.374 314.575 164.291 313.856 164.28H311.528ZM415.805 161.905H429.555V164.421H424.102V182.155H429.555V184.655H415.805V182.155H421.133V164.421H415.805V161.905ZM483.513 184.655H480.576L471.748 167.655L471.701 184.655H468.779V161.905H471.717L480.545 178.874L480.592 161.905H483.513V184.655ZM534.628 178.905C534.628 178.207 534.467 177.619 534.144 177.14C533.832 176.66 533.425 176.254 532.925 175.921C532.425 175.598 531.873 175.327 531.269 175.108C530.675 174.89 530.102 174.692 529.55 174.515C528.748 174.254 527.93 173.942 527.097 173.577C526.274 173.202 525.524 172.754 524.847 172.233C524.16 171.702 523.597 171.077 523.16 170.358C522.733 169.629 522.519 168.775 522.519 167.796C522.519 166.817 522.733 165.942 523.16 165.171C523.597 164.4 524.165 163.749 524.863 163.218C525.561 162.687 526.352 162.285 527.238 162.015C528.123 161.733 529.014 161.593 529.91 161.593C530.899 161.593 531.852 161.759 532.769 162.093C533.686 162.416 534.498 162.874 535.207 163.468C535.915 164.062 536.483 164.78 536.91 165.624C537.337 166.468 537.561 167.41 537.582 168.452H534.613C534.529 167.796 534.368 167.202 534.128 166.671C533.889 166.129 533.571 165.666 533.175 165.28C532.779 164.895 532.305 164.598 531.753 164.39C531.212 164.171 530.597 164.062 529.91 164.062C529.358 164.062 528.816 164.14 528.285 164.296C527.764 164.452 527.3 164.687 526.894 164.999C526.477 165.312 526.144 165.697 525.894 166.155C525.654 166.614 525.535 167.145 525.535 167.749C525.545 168.405 525.712 168.963 526.035 169.421C526.358 169.869 526.769 170.249 527.269 170.562C527.759 170.874 528.29 171.134 528.863 171.343C529.446 171.551 529.993 171.733 530.503 171.89C531.347 172.15 532.191 172.468 533.035 172.843C533.878 173.207 534.649 173.676 535.347 174.249C536.035 174.78 536.587 175.431 537.003 176.202C537.43 176.973 537.644 177.864 537.644 178.874C537.644 179.895 537.415 180.785 536.957 181.546C536.509 182.306 535.925 182.937 535.207 183.437C534.488 183.947 533.675 184.332 532.769 184.593C531.863 184.843 530.957 184.968 530.05 184.968C528.967 184.968 527.899 184.785 526.847 184.421C525.805 184.056 524.899 183.53 524.128 182.843C523.441 182.249 522.894 181.556 522.488 180.765C522.092 179.963 521.878 179.072 521.847 178.093H524.8C524.894 178.801 525.087 179.431 525.378 179.983C525.67 180.525 526.045 180.983 526.503 181.358C526.962 181.744 527.488 182.035 528.082 182.233C528.686 182.421 529.342 182.515 530.05 182.515C530.613 182.515 531.165 182.447 531.707 182.312C532.259 182.166 532.748 181.942 533.175 181.64C533.602 181.348 533.951 180.978 534.222 180.53C534.493 180.072 534.628 179.53 534.628 178.905ZM591.525 164.374H584.493V184.655H581.681V164.374H574.65V161.905H591.525V164.374ZM640.499 178.765H632.905L631.077 184.655H628.187L635.53 161.905H637.952L645.171 184.655H642.296L640.499 178.765ZM633.687 176.249H639.733L636.733 166.374L633.687 176.249ZM638.28 156.155H641.78L637.593 160.312H635.405L638.28 156.155ZM697.348 184.655H694.411L685.583 167.655L685.536 184.655H682.614V161.905H685.552L694.38 178.874L694.427 161.905H697.348V184.655ZM751.901 164.374H744.87V184.655H742.057V164.374H735.026V161.905H751.901V164.374ZM800.875 178.765H793.281L791.453 184.655H788.563L795.906 161.905H798.328L805.547 184.655H802.672L800.875 178.765ZM794.063 176.249H800.11L797.11 166.374L794.063 176.249ZM857.725 184.655H854.787L845.959 167.655L845.912 184.655H842.99V161.905H845.928L854.756 178.874L854.803 161.905H857.725V184.655ZM909.449 174.14H899.949V182.202H911.027V184.655H897.058V161.905H910.887V164.374H899.949V171.687H909.449V174.14ZM961.252 178.765H953.658L951.83 184.655H948.939L956.283 161.905H958.705L965.923 184.655H963.048L961.252 178.765ZM954.439 176.249H960.486L957.486 166.374L954.439 176.249Z" fill="#E756B3"/>
</svg>
